<svg xmlns:dc="http://purl.org/dc/elements/1.1/" xmlns:cc="http://creativecommons.org/ns#" xmlns:rdf="http://www.w3.org/1999/02/22-rdf-syntax-ns#" xmlns:svg="http://www.w3.org/2000/svg" xmlns="http://www.w3.org/2000/svg" xmlns:sodipodi="http://sodipodi.sourceforge.net/DTD/sodipodi-0.dtd" xmlns:inkscape="http://www.inkscape.org/namespaces/inkscape" width="512" height="512" viewBox="0 0 16 16" id="svg5529" version="1.1" inkscape:version="0.91 r13725" sodipodi:docname="q.svg">
  <defs id="defs5531"/>
  <sodipodi:namedview id="base" pagecolor="#ffffff" bordercolor="#666666" borderopacity="1.0" inkscape:pageopacity="0.0" inkscape:pageshadow="2" inkscape:zoom="22.627417" inkscape:cx="7.1609617" inkscape:cy="6.9180466" inkscape:document-units="px" inkscape:current-layer="layer1" showgrid="true" units="px" inkscape:snap-bbox="true" inkscape:bbox-nodes="true" inkscape:bbox-paths="true" inkscape:snap-bbox-edge-midpoints="true" inkscape:snap-bbox-midpoints="true" inkscape:window-width="1366" inkscape:window-height="705" inkscape:window-x="-8" inkscape:window-y="-8" inkscape:window-maximized="1">
    <inkscape:grid type="xygrid" id="grid5537"/>
  </sodipodi:namedview>
  
  <g inkscape:label="Layer 1" inkscape:groupmode="layer" id="layer1" transform="translate(0,-1036.3622)">
    <path style="color:#FFFFFF;font-style:normal;font-variant:normal;font-weight:normal;font-stretch:normal;font-size:medium;line-height:normal;font-family:sans-serif;text-indent:0;text-align:start;text-decoration:none;text-decoration-line:none;text-decoration-style:solid;text-decoration-color:#FFFFFFF;letter-spacing:normal;word-spacing:normal;text-transform:none;direction:ltr;block-progression:tb;writing-mode:lr-tb;baseline-shift:baseline;text-anchor:start;white-space:normal;clip-rule:nonzero;display:inline;overflow:visible;visibility:visible;opacity:1;isolation:auto;mix-blend-mode:normal;color-interpolation:sRGB;color-interpolation-filters:linearRGB;solid-color:#000000;solid-opacity:1;fill:#000000;fill-opacity:1;fill-rule:nonzero;stroke:none;stroke-width:0.99999994;stroke-linecap:round;stroke-linejoin:round;stroke-miterlimit:4;stroke-dasharray:none;stroke-dashoffset:0;stroke-opacity:1;color-rendering:auto;image-rendering:auto;shape-rendering:auto;text-rendering:auto;enable-background:accumulate" d="M 7.9980469 3 C 5.2494336 3 3.0000002 5.2485938 3 7.9960938 C 3.0000002 10.743694 5.2494336 12.992188 7.9980469 12.992188 C 9.0122916 12.992188 9.955695 12.682664 10.746094 12.158203 L 11.279297 12.691406 A 0.9997486 0.99935702 0 1 0 12.691406 11.279297 L 12.160156 10.748047 C 12.686327 9.9572123 12.996094 9.0115444 12.996094 7.9960938 C 12.996094 5.2485938 10.74666 3 7.9980469 3 z M 7.9980469 4.9980469 C 9.6661595 4.9980469 10.998046 6.3287937 10.998047 7.9960938 C 10.998047 8.4611091 10.884644 8.8941399 10.699219 9.2851562 A 0.9997486 0.99935702 0 0 0 9.9980469 8.9960938 A 0.9997486 0.99935702 0 0 0 9.2871094 10.697266 C 8.8961601 10.882358 8.4628711 10.994141 7.9980469 10.994141 C 6.3299341 10.994141 5.0000002 9.6636937 5 7.9960938 C 5.0000002 6.3287938 6.3299341 4.9980469 7.9980469 4.9980469 z " transform="translate(0,1036.3622)" id="circle5855"/>
  </g>

	
	<metadata>
		<rdf:RDF xmlns:rdf="http://www.w3.org/1999/02/22-rdf-syntax-ns#" xmlns:rdfs="http://www.w3.org/2000/01/rdf-schema#" xmlns:dc="http://purl.org/dc/elements/1.1/">
			<rdf:Description about="https://iconscout.com/legal#licenses" dc:title="Q, Character, Alphabet, Letter" dc:description="Q, Character, Alphabet, Letter" dc:publisher="Iconscout" dc:date="2016-12-14" dc:format="image/svg+xml" dc:language="en">
				<dc:creator>
					<rdf:Bag>
						<rdf:li>Mohit Gandhi</rdf:li>
					</rdf:Bag>
				</dc:creator>
			</rdf:Description>
		</rdf:RDF>
    </metadata></svg>
